<?xml version="1.0" encoding="UTF-8" standalone="no"?>
<!-- Created with Inkscape (http://www.inkscape.org/) -->

<svg
   xmlns:dc="http://purl.org/dc/elements/1.1/"
   xmlns:cc="http://creativecommons.org/ns#"
   xmlns:rdf="http://www.w3.org/1999/02/22-rdf-syntax-ns#"
   xmlns:svg="http://www.w3.org/2000/svg"
   xmlns="http://www.w3.org/2000/svg"
   xmlns:sodipodi="http://sodipodi.sourceforge.net/DTD/sodipodi-0.dtd"
   xmlns:inkscape="http://www.inkscape.org/namespaces/inkscape"
   width="576"
   height="226"
   viewBox="0 0 576.00001 226"
   id="svg2"
   version="1.1"
   inkscape:version="0.91 r13725"
   sodipodi:docname="nano-jsx-logo.svg">
  <defs
     id="defs4">
    <inkscape:perspective
       sodipodi:type="inkscape:persp3d"
       inkscape:vp_x="0 : 526.18109 : 1"
       inkscape:vp_y="0 : 999.99998 : 0"
       inkscape:vp_z="744.0945 : 526.18109 : 1"
       inkscape:persp3d-origin="372.04724 : 350.78739 : 1"
       id="perspective4179" />
  </defs>
  <sodipodi:namedview
     id="base"
     pagecolor="#ffffff"
     bordercolor="#666666"
     borderopacity="1.0"
     inkscape:pageopacity="0.0"
     inkscape:pageshadow="2"
     inkscape:zoom="0.9899495"
     inkscape:cx="173.22267"
     inkscape:cy="112.21417"
     inkscape:document-units="px"
     inkscape:current-layer="g4168"
     showgrid="false"
     inkscape:window-width="1863"
     inkscape:window-height="1056"
     inkscape:window-x="57"
     inkscape:window-y="24"
     inkscape:window-maximized="1"
     units="px" />
  <metadata
     id="metadata7">
    <rdf:RDF>
      <cc:Work
         rdf:about="">
        <dc:format>image/svg+xml</dc:format>
        <dc:type
           rdf:resource="http://purl.org/dc/dcmitype/StillImage" />
        <dc:title></dc:title>
      </cc:Work>
    </rdf:RDF>
  </metadata>
  <g
     inkscape:label="Layer 1"
     inkscape:groupmode="layer"
     id="layer1"
     transform="translate(0,-826.36216)">
    <g
       id="g4189"
       style="fill:#ffffff;fill-opacity:1"
       transform="translate(32.029014,-150.86987)">
      <flowRoot
         xml:space="preserve"
         id="flowRoot4220"
         style="font-style:normal;font-variant:normal;font-weight:normal;font-stretch:normal;font-size:30px;line-height:125%;font-family:'URW Gothic L';-inkscape-font-specification:'URW Gothic L';letter-spacing:0px;word-spacing:0px;fill:#000000;fill-opacity:1;stroke:none;stroke-width:1px;stroke-linecap:butt;stroke-linejoin:miter;stroke-opacity:1"><flowRegion
           id="flowRegion4222"><rect
             id="rect4224"
             width="127.14286"
             height="80"
             x="357.14285"
             y="46.647919"
             style="font-style:normal;font-variant:normal;font-weight:normal;font-stretch:normal;font-family:'URW Gothic L';-inkscape-font-specification:'URW Gothic L'" /></flowRegion><flowPara
           id="flowPara4226" /></flowRoot>      <rect
         style="opacity:1;fill:none;fill-opacity:1;fill-rule:nonzero;stroke:none;stroke-width:3.5;stroke-linecap:round;stroke-linejoin:round;stroke-miterlimit:4;stroke-dasharray:none;stroke-dashoffset:16.40057373;stroke-opacity:1"
         id="rect4180"
         width="512"
         height="512"
         x="-752.02899"
         y="391.23212"
         inkscape:export-xdpi="96"
         inkscape:export-ydpi="96" />
      <g
         inkscape:export-ydpi="96"
         inkscape:export-xdpi="96"
         transform="matrix(1.3768538,0,0,1.3768538,-68.324368,500.66892)"
         id="g4168">
        <g
           style="font-style:normal;font-variant:normal;font-weight:normal;font-stretch:normal;font-size:26.74723053px;line-height:125%;font-family:'URW Gothic L';-inkscape-font-specification:'URW Gothic L';letter-spacing:0px;word-spacing:0px;fill:#000000;fill-opacity:1;stroke:none;stroke-width:1px;stroke-linecap:butt;stroke-linejoin:miter;stroke-opacity:1"
           id="text4184" />
        <g
           id="g4248"
           transform="translate(-78.699578,46.631562)">
          <path
             transform="matrix(-0.43746654,0.75771428,0.75771428,0.43746654,-203.19253,66.57301)"
             d="M 154.06054,592.49957 94.438003,626.92265 34.815466,592.49956 34.815466,523.65339 94.438004,489.2303 154.06054,523.65339 Z"
             inkscape:randomized="0"
             inkscape:rounded="0"
             inkscape:flatsided="true"
             sodipodi:arg2="1.0471976"
             sodipodi:arg1="0.52359878"
             sodipodi:r2="35.800011"
             sodipodi:r1="68.846176"
             sodipodi:cy="558.07648"
             sodipodi:cx="94.438004"
             sodipodi:sides="6"
             id="path4170"
             style="opacity:1;fill:#ff4e6a;fill-opacity:1;fill-rule:nonzero;stroke:#ff4e6a;stroke-width:40;stroke-linecap:round;stroke-linejoin:round;stroke-miterlimit:4;stroke-dasharray:none;stroke-dashoffset:16.40057373;stroke-opacity:1"
             sodipodi:type="star" />
          <circle
             style="opacity:1;fill:#ffffff;fill-opacity:1;fill-rule:nonzero;stroke:#ff4e6a;stroke-width:0;stroke-linecap:round;stroke-linejoin:round;stroke-miterlimit:4;stroke-dasharray:none;stroke-dashoffset:16.40057373;stroke-opacity:1"
             id="circle4172"
             cx="178.35652"
             cy="382.26981"
             r="17.425131" />
          <g
             transform="translate(396.43115,215.52597)"
             id="g4174">
            <ellipse
               style="opacity:1;fill:none;fill-opacity:1;fill-rule:nonzero;stroke:#ffffff;stroke-width:3.5;stroke-linecap:round;stroke-linejoin:round;stroke-miterlimit:4;stroke-dasharray:none;stroke-dashoffset:16.40057373;stroke-opacity:1"
               id="ellipse4176"
               cx="-150.92378"
               cy="107.29803"
               rx="59.598999"
               ry="29.7995"
               transform="matrix(0.8660254,0.5,-0.5,0.8660254,-32.029014,150.86987)" />
            <circle
               r="8.0812206"
               cy="166.9635"
               cx="-173.24117"
               id="circle4178"
               style="opacity:1;fill:#ffffff;fill-opacity:1;fill-rule:nonzero;stroke:#ff4e6a;stroke-width:0;stroke-linecap:round;stroke-linejoin:round;stroke-miterlimit:4;stroke-dasharray:none;stroke-dashoffset:16.40057373;stroke-opacity:1" />
            <circle
               r="7.8286824"
               cy="131.18231"
               cx="-258.34653"
               id="circle4180"
               style="opacity:1;fill:#ffffff;fill-opacity:1;fill-rule:nonzero;stroke:#ff4e6a;stroke-width:0;stroke-linecap:round;stroke-linejoin:round;stroke-miterlimit:4;stroke-dasharray:none;stroke-dashoffset:16.40057373;stroke-opacity:1" />
            <circle
               r="9.0913725"
               cy="196.69121"
               cx="-227.04356"
               id="circle4182"
               style="opacity:1;fill:#ffffff;fill-opacity:1;fill-rule:nonzero;stroke:#ff4e6a;stroke-width:0;stroke-linecap:round;stroke-linejoin:round;stroke-miterlimit:4;stroke-dasharray:none;stroke-dashoffset:16.40057373;stroke-opacity:1" />
          </g>
          <path
             id="path4193"
             style="font-style:normal;font-variant:normal;font-weight:600;font-stretch:normal;font-size:62.41020203px;line-height:125%;font-family:'URW Gothic L';-inkscape-font-specification:'URW Gothic L Semi-Bold';letter-spacing:0px;word-spacing:0px;fill:#000000;fill-opacity:1;stroke:none;stroke-width:1px;stroke-linecap:butt;stroke-linejoin:miter;stroke-opacity:1"
             d="M 269.79898,402.35211 278.09954,402.35211 278.09954,386.06305 C 278.09954,381.44469 278.41159,379.44757 279.47257,377.76249 280.78318,375.70296 282.96754,374.57957 285.58877,374.57957 287.71071,374.57957 289.4582,375.32849 290.58158,376.76393 291.70496,378.26177 292.20425,380.82059 292.20425,385.43895 L 292.20425,402.35211 300.5048,402.35211 300.5048,383.81628 C 300.5048,377.63767 299.8807,374.64198 298.0084,371.95834 295.76163,368.71301 292.01702,366.96553 287.21143,366.96553 283.27959,366.96553 280.53354,368.15132 277.47544,371.0846 L 277.47544,367.77686 269.79898,367.77686 269.79898,402.35211 Z"
             inkscape:connector-curvature="0" />
          <path
             id="path4196"
             style="font-style:normal;font-variant:normal;font-weight:600;font-stretch:normal;font-size:62.41020203px;line-height:125%;font-family:'URW Gothic L';-inkscape-font-specification:'URW Gothic L Semi-Bold';letter-spacing:0px;word-spacing:0px;fill:#000000;fill-opacity:1;stroke:none;stroke-width:1px;stroke-linecap:butt;stroke-linejoin:miter;stroke-opacity:1"
             d="M 342.23285,367.77686 334.6188,367.77686 334.6188,372.39521 C 331.74793,368.58819 328.31537,366.96553 323.32256,366.96553 313.08728,366.96553 305.72288,374.64198 305.72288,385.18931 305.72288,395.61181 313.02487,403.16344 323.13533,403.16344 328.00332,403.16344 331.31106,401.60319 334.6188,397.85858 L 334.6188,402.35211 342.23285,402.35211 342.23285,367.77686 Z M 324.1963,374.57957 C 330.12527,374.57957 334.36916,379.0107 334.36916,385.31413 334.36916,387.81053 333.3706,390.6814 331.87276,392.42889 330.18768,394.42602 327.50404,395.5494 324.32112,395.5494 318.26733,395.5494 314.08585,391.43033 314.08585,385.37654 314.08585,379.07311 318.26733,374.57957 324.1963,374.57957 Z"
             inkscape:connector-curvature="0" />
          <path
             id="path4198"
             style="font-style:normal;font-variant:normal;font-weight:600;font-stretch:normal;font-size:62.41020203px;line-height:125%;font-family:'URW Gothic L';-inkscape-font-specification:'URW Gothic L Semi-Bold';letter-spacing:0px;word-spacing:0px;fill:#000000;fill-opacity:1;stroke:none;stroke-width:1px;stroke-linecap:butt;stroke-linejoin:miter;stroke-opacity:1"
             d="M 348.42121,402.35211 356.72176,402.35211 356.72176,386.06305 C 356.72176,381.44469 357.03381,379.44757 358.09479,377.76249 359.4054,375.70296 361.58976,374.57957 364.21099,374.57957 366.33293,374.57957 368.08042,375.32849 369.2038,376.76393 370.32719,378.26177 370.82647,380.82059 370.82647,385.43895 L 370.82647,402.35211 379.12703,402.35211 379.12703,383.81628 C 379.12703,377.63767 378.50292,374.64198 376.63062,371.95834 374.38385,368.71301 370.63924,366.96553 365.83365,366.96553 361.90181,366.96553 359.15576,368.15132 356.09766,371.0846 L 356.09766,367.77686 348.42121,367.77686 348.42121,402.35211 Z"
             inkscape:connector-curvature="0" />
          <path
             id="path4200"
             style="font-style:normal;font-variant:normal;font-weight:600;font-stretch:normal;font-size:62.41020203px;line-height:125%;font-family:'URW Gothic L';-inkscape-font-specification:'URW Gothic L Semi-Bold';letter-spacing:0px;word-spacing:0px;fill:#000000;fill-opacity:1;stroke:none;stroke-width:1px;stroke-linecap:butt;stroke-linejoin:miter;stroke-opacity:1"
             d="M 402.6313,366.96553 C 392.58325,366.96553 384.34511,375.14126 384.34511,385.06449 384.34511,395.05012 392.58325,403.16344 402.69371,403.16344 412.74175,403.16344 421.10472,395.05012 421.10472,385.31413 421.10472,375.01644 413.0538,366.96553 402.6313,366.96553 Z M 402.69371,374.57957 C 408.24821,374.57957 412.74175,379.32275 412.74175,385.06449 412.74175,390.86863 408.24821,395.5494 402.75612,395.5494 397.1392,395.5494 392.70807,390.86863 392.70807,384.93967 392.70807,379.26034 397.26402,374.57957 402.69371,374.57957 Z"
             inkscape:connector-curvature="0" />
          <g
             id="text4188"
             style="font-style:normal;font-weight:normal;font-size:50.46704483px;line-height:125%;font-family:sans-serif;letter-spacing:0px;word-spacing:0px;fill:#000000;fill-opacity:1;stroke:none;stroke-width:1px;stroke-linecap:butt;stroke-linejoin:miter;stroke-opacity:1">
            <path
               id="path4203"
               style="font-style:normal;font-variant:normal;font-weight:normal;font-stretch:normal;font-family:Arial;-inkscape-font-specification:Arial"
               d="M 428.73056,392.20579 433.04293,391.61438 Q 433.21542,395.75425 434.59538,397.28207 435.97534,398.80988 438.41491,398.80988 440.21378,398.80988 441.51981,397.99669 442.82584,397.15886 443.31869,395.75425 443.81153,394.32501 443.81153,391.22011 L 443.81153,366.33157 448.5921,366.33157 448.5921,390.94904 Q 448.5921,395.48319 447.4832,397.97204 446.39895,400.4609 444.00867,401.76693 441.64302,403.07296 438.43955,403.07296 433.68362,403.07296 431.14548,400.33769 428.63199,397.60241 428.73056,392.20579 Z"
               inkscape:connector-curvature="0" />
            <path
               id="path4205"
               style="font-style:normal;font-variant:normal;font-weight:normal;font-stretch:normal;font-family:Arial;-inkscape-font-specification:Arial"
               d="M 454.77727,390.85047 459.28678,390.4562 Q 459.60712,393.16683 460.7653,394.91642 461.94812,396.64137 464.41233,397.72562 466.87655,398.78523 469.95681,398.78523 472.69208,398.78523 474.78666,397.97204 476.88124,397.15886 477.89157,395.75425 478.92654,394.32501 478.92654,392.64935 478.92654,390.94904 477.94085,389.6923 476.95517,388.41091 474.6881,387.54843 473.23421,386.98166 468.2565,385.79884 463.2788,384.59138 461.28279,383.53177 458.69536,382.17645 457.41398,380.18044 456.15723,378.15979 456.15723,375.67093 456.15723,372.93566 457.70968,370.57002 459.26213,368.17973 462.24383,366.94763 465.22552,365.71552 468.87256,365.71552 472.88922,365.71552 475.94484,367.02155 479.02511,368.30294 480.67613,370.81644 482.32715,373.32993 482.45036,376.50877 L 477.86693,376.85376 Q 477.4973,373.4285 475.35343,371.67891 473.23421,369.92932 469.06969,369.92932 464.73268,369.92932 462.73667,371.53106 460.7653,373.10815 460.7653,375.35059 460.7653,377.29731 462.1699,378.55406 463.54986,379.81081 469.3654,381.14148 475.20558,382.44751 477.37409,383.4332 480.52828,384.88708 482.03144,387.12952 483.53461,389.34731 483.53461,392.25507 483.53461,395.1382 481.88359,397.70098 480.23257,400.23912 477.12766,401.66836 474.0474,403.07296 470.17859,403.07296 465.27481,403.07296 461.94812,401.64372 458.64608,400.21448 456.74864,397.35599 454.87584,394.47286 454.77727,390.85047 Z"
               inkscape:connector-curvature="0" />
            <path
               id="path4207"
               style="font-style:normal;font-variant:normal;font-weight:normal;font-stretch:normal;font-family:Arial;-inkscape-font-specification:Arial"
               d="M 486.44238,402.45691 500.41446,383.63034 488.0934,366.33157 493.78573,366.33157 500.34053,375.59701 Q 502.38583,378.48013 503.2483,380.03259 504.45577,378.06122 506.10679,375.91735 L 513.37621,366.33157 518.5757,366.33157 505.88501,383.35927 519.56138,402.45691 513.64727,402.45691 504.55434,389.56908 Q 503.79043,388.46019 502.97724,387.15416 501.76978,389.12553 501.25229,389.86479 L 492.18399,402.45691 486.44238,402.45691 Z"
               inkscape:connector-curvature="0" />
          </g>
        </g>
      </g>
    </g>
  </g>
</svg>
